<svg width="37" height="46" viewBox="0 0 37 46" fill="none" xmlns="http://www.w3.org/2000/svg">
<path d="M14.0142 0C12.3688 0 11.0142 1.35455 11.0142 3V5H3.16854C3.11239 4.99061 3.05554 4.98604 2.99862 4.98633C2.95018 4.98738 2.90187 4.99195 2.85409 5H1.01425C0.653607 4.9949 0.318168 5.18438 0.136358 5.49587C-0.0454525 5.80737 -0.0454525 6.19263 0.136358 6.50412C0.318168 6.81562 0.653607 7.00509 1.01425 6.99999H2.01425V43C2.01425 44.6454 3.3688 46 5.01425 46H31.0142C32.6597 46 34.0142 44.6454 34.0142 43V6.99999H35.0142C35.3749 7.00509 35.7103 6.81561 35.8921 6.50412C36.0739 6.19262 36.0739 5.80736 35.8921 5.49587C35.7103 5.18437 35.3749 4.9949 35.0142 5H33.1822C33.0742 4.98215 32.964 4.98215 32.856 5H25.0142V3C25.0142 1.35455 23.6597 0 22.0142 0H14.0142ZM14.0142 2H22.0142C22.5688 2 23.0142 2.44545 23.0142 3V5H13.0142V3C13.0142 2.44545 13.4597 2 14.0142 2ZM4.01424 7H11.8463C11.9543 7.01785 12.0644 7.01785 12.1724 7H23.8463C23.9543 7.01785 24.0644 7.01785 24.1724 7H32.0142V43C32.0142 43.5545 31.5688 44 31.0142 44H5.01424C4.4597 44 4.01424 43.5545 4.01424 43V7ZM11.9986 11.9863C11.4471 11.995 11.0067 12.4485 11.0142 13V38C11.0091 38.3606 11.1986 38.6961 11.5101 38.8779C11.8216 39.0597 12.2069 39.0597 12.5184 38.8779C12.8299 38.6961 13.0193 38.3606 13.0142 38V13C13.0179 12.7297 12.9121 12.4694 12.7207 12.2785C12.5294 12.0875 12.2689 11.9821 11.9986 11.9863ZM17.9986 11.9863C17.4471 11.995 17.0067 12.4485 17.0142 13V38C17.0091 38.3606 17.1986 38.6961 17.5101 38.8779C17.8216 39.0597 18.2069 39.0597 18.5184 38.8779C18.8299 38.6961 19.0193 38.3606 19.0142 38V13C19.0179 12.7297 18.9121 12.4694 18.7207 12.2785C18.5294 12.0875 18.2689 11.9821 17.9986 11.9863ZM23.9986 11.9863C23.4471 11.995 23.0067 12.4485 23.0142 13V38C23.0091 38.3606 23.1986 38.6961 23.5101 38.8779C23.8216 39.0597 24.2069 39.0597 24.5184 38.8779C24.8299 38.6961 25.0193 38.3606 25.0142 38V13C25.0179 12.7297 24.9121 12.4694 24.7207 12.2785C24.5294 12.0875 24.2689 11.9821 23.9986 11.9863Z" fill="#167642"/>
</svg>
